<svg xmlns="http://www.w3.org/2000/svg" xml:space="preserve" enable-background="new 0 0 90 90" version="1.1" fill="#fc0254" viewBox="17.31 10.77 55.38 68.46">

 <g>
  <title>Layer 1</title>
  <g id="svg_1">
   <path id="svg_2" d="m72.692,48.5065l-9.348,-7.051l-0.192,-0.146l-0.005,-0.003l-7.515,-5.668l0,4.264l6.067,4.577l5.32,4.044l-22.019,16.608l-22.017,-16.606l6.924,-5.256l4.387,-3.311l0,-4.265l-16.986,12.813l0.036,0.026l-0.036,0.027l0,9.782l27.692,20.888l27.692,-20.887l0,-9.782l-0.035,-0.027l0.035,-0.027zm-3.402,8.141l-24.29,18.32l-24.29,-18.32l0,-5.574l24.29,18.32l24.29,-18.32l0,5.574z"/>
   <path id="svg_3" d="m37.696,33.7385l0,12.419c0,4.007 3.26,7.267 7.267,7.267s7.267,-3.26 7.267,-7.267l0,-12.365c3.273,-2.289 5.423,-6.08 5.423,-10.369c0,-6.977 -5.676,-12.653 -12.653,-12.653c-6.977,0 -12.653,5.676 -12.653,12.653c0,4.257 2.118,8.02 5.349,10.315zm11.132,12.419c0,2.132 -1.735,3.864 -3.865,3.864s-3.864,-1.732 -3.864,-3.864l0,-10.703c1.23,0.4 2.539,0.622 3.901,0.622c1.334,0 2.62,-0.211 3.828,-0.595l0,10.676zm-3.828,-31.984c5.101,0 9.251,4.15 9.251,9.251c0,5.101 -4.15,9.25 -9.251,9.25c-5.101,0 -9.251,-4.15 -9.251,-9.25c0,-5.101 4.15,-9.251 9.251,-9.251z"/>
   <path id="svg_4" d="m45,19.5605c2.129,0 3.861,1.733 3.861,3.863c0,0.939 0.762,1.701 1.701,1.701s1.701,-0.762 1.701,-1.701c0,-4.006 -3.259,-7.266 -7.264,-7.266c-0.939,0 -1.701,0.762 -1.701,1.701s0.763,1.702 1.702,1.702z"/>
  </g>
 </g>
</svg>