<svg xmlns="http://www.w3.org/2000/svg" xmlns:xlink="http://www.w3.org/1999/xlink" zoomAndPan="magnify" preserveAspectRatio="xMidYMid meet" version="1.0" viewBox="656.98 396.44 128.08 21.02"><defs><g/></defs><g fill="#ffffff" fill-opacity="1"><g transform="translate(655.132764, 412.956199)"><g><path d="M 1.84375 0 L 1.84375 -15.59375 L 4.828125 -15.59375 L 11.46875 -4.59375 L 9.890625 -4.59375 L 16.40625 -15.59375 L 19.375 -15.59375 L 19.421875 0 L 16.03125 0 L 16.015625 -10.390625 L 16.625 -10.390625 L 11.421875 -1.640625 L 9.796875 -1.640625 L 4.46875 -10.390625 L 5.234375 -10.390625 L 5.234375 0 Z M 1.84375 0 "/></g></g></g><g fill="#ffffff" fill-opacity="1"><g transform="translate(676.391473, 412.956199)"><g><path d="M 8.953125 0 L 8.953125 -2.34375 L 8.734375 -2.84375 L 8.734375 -7.03125 C 8.734375 -7.78125 8.503906 -8.359375 8.046875 -8.765625 C 7.597656 -9.179688 6.90625 -9.390625 5.96875 -9.390625 C 5.332031 -9.390625 4.703125 -9.289062 4.078125 -9.09375 C 3.460938 -8.894531 2.941406 -8.625 2.515625 -8.28125 L 1.265625 -10.703125 C 1.921875 -11.171875 2.707031 -11.53125 3.625 -11.78125 C 4.550781 -12.03125 5.488281 -12.15625 6.4375 -12.15625 C 8.257812 -12.15625 9.675781 -11.722656 10.6875 -10.859375 C 11.695312 -10.003906 12.203125 -8.660156 12.203125 -6.828125 L 12.203125 0 Z M 5.296875 0.171875 C 4.359375 0.171875 3.554688 0.015625 2.890625 -0.296875 C 2.222656 -0.617188 1.710938 -1.050781 1.359375 -1.59375 C 1.003906 -2.144531 0.828125 -2.765625 0.828125 -3.453125 C 0.828125 -4.160156 1 -4.78125 1.34375 -5.3125 C 1.695312 -5.851562 2.25 -6.273438 3 -6.578125 C 3.757812 -6.878906 4.75 -7.03125 5.96875 -7.03125 L 9.15625 -7.03125 L 9.15625 -5.015625 L 6.34375 -5.015625 C 5.53125 -5.015625 4.96875 -4.878906 4.65625 -4.609375 C 4.351562 -4.335938 4.203125 -4.003906 4.203125 -3.609375 C 4.203125 -3.160156 4.375 -2.804688 4.71875 -2.546875 C 5.070312 -2.285156 5.554688 -2.15625 6.171875 -2.15625 C 6.742188 -2.15625 7.257812 -2.289062 7.71875 -2.5625 C 8.1875 -2.84375 8.523438 -3.25 8.734375 -3.78125 L 9.265625 -2.1875 C 9.015625 -1.414062 8.550781 -0.828125 7.875 -0.421875 C 7.207031 -0.0234375 6.347656 0.171875 5.296875 0.171875 Z M 5.296875 0.171875 "/></g></g></g><g fill="#ffffff" fill-opacity="1"><g transform="translate(690.126153, 412.956199)"><g><path d="M 7.234375 4.5 C 6.109375 4.5 5.019531 4.359375 3.96875 4.078125 C 2.925781 3.804688 2.054688 3.394531 1.359375 2.84375 L 2.734375 0.359375 C 3.242188 0.773438 3.882812 1.101562 4.65625 1.34375 C 5.4375 1.59375 6.207031 1.71875 6.96875 1.71875 C 8.195312 1.71875 9.085938 1.441406 9.640625 0.890625 C 10.203125 0.335938 10.484375 -0.476562 10.484375 -1.5625 L 10.484375 -3.359375 L 10.703125 -6.375 L 10.671875 -9.390625 L 10.671875 -11.984375 L 13.953125 -11.984375 L 13.953125 -2 C 13.953125 0.226562 13.375 1.867188 12.21875 2.921875 C 11.0625 3.972656 9.398438 4.5 7.234375 4.5 Z M 6.703125 -0.578125 C 5.585938 -0.578125 4.582031 -0.816406 3.6875 -1.296875 C 2.789062 -1.785156 2.070312 -2.460938 1.53125 -3.328125 C 0.988281 -4.191406 0.71875 -5.207031 0.71875 -6.375 C 0.71875 -7.539062 0.988281 -8.554688 1.53125 -9.421875 C 2.070312 -10.296875 2.789062 -10.96875 3.6875 -11.4375 C 4.582031 -11.914062 5.585938 -12.15625 6.703125 -12.15625 C 7.710938 -12.15625 8.601562 -11.953125 9.375 -11.546875 C 10.144531 -11.140625 10.742188 -10.507812 11.171875 -9.65625 C 11.609375 -8.800781 11.828125 -7.707031 11.828125 -6.375 C 11.828125 -5.050781 11.609375 -3.960938 11.171875 -3.109375 C 10.742188 -2.253906 10.144531 -1.617188 9.375 -1.203125 C 8.601562 -0.785156 7.710938 -0.578125 6.703125 -0.578125 Z M 7.390625 -3.421875 C 8.003906 -3.421875 8.546875 -3.539062 9.015625 -3.78125 C 9.492188 -4.03125 9.863281 -4.378906 10.125 -4.828125 C 10.394531 -5.273438 10.53125 -5.789062 10.53125 -6.375 C 10.53125 -6.96875 10.394531 -7.484375 10.125 -7.921875 C 9.863281 -8.359375 9.492188 -8.695312 9.015625 -8.9375 C 8.546875 -9.1875 8.003906 -9.3125 7.390625 -9.3125 C 6.785156 -9.3125 6.242188 -9.1875 5.765625 -8.9375 C 5.285156 -8.695312 4.910156 -8.359375 4.640625 -7.921875 C 4.367188 -7.484375 4.234375 -6.96875 4.234375 -6.375 C 4.234375 -5.789062 4.367188 -5.273438 4.640625 -4.828125 C 4.910156 -4.378906 5.285156 -4.03125 5.765625 -3.78125 C 6.242188 -3.539062 6.785156 -3.421875 7.390625 -3.421875 Z M 7.390625 -3.421875 "/></g></g></g><g fill="#ffffff" fill-opacity="1"><g transform="translate(705.708452, 412.956199)"><g><path d="M 8.890625 -12.15625 C 9.835938 -12.15625 10.6875 -11.960938 11.4375 -11.578125 C 12.1875 -11.203125 12.773438 -10.625 13.203125 -9.84375 C 13.628906 -9.070312 13.84375 -8.078125 13.84375 -6.859375 L 13.84375 0 L 10.375 0 L 10.375 -6.328125 C 10.375 -7.285156 10.160156 -7.992188 9.734375 -8.453125 C 9.316406 -8.921875 8.722656 -9.15625 7.953125 -9.15625 C 7.398438 -9.15625 6.90625 -9.039062 6.46875 -8.8125 C 6.03125 -8.582031 5.6875 -8.226562 5.4375 -7.75 C 5.195312 -7.269531 5.078125 -6.660156 5.078125 -5.921875 L 5.078125 0 L 1.609375 0 L 1.609375 -11.984375 L 4.921875 -11.984375 L 4.921875 -8.65625 L 4.296875 -9.65625 C 4.722656 -10.457031 5.335938 -11.070312 6.140625 -11.5 C 6.941406 -11.9375 7.859375 -12.15625 8.890625 -12.15625 Z M 8.890625 -12.15625 "/></g></g></g><g fill="#ffffff" fill-opacity="1"><g transform="translate(721.090403, 412.956199)"><g><path d="M 8.953125 0 L 8.953125 -2.34375 L 8.734375 -2.84375 L 8.734375 -7.03125 C 8.734375 -7.78125 8.503906 -8.359375 8.046875 -8.765625 C 7.597656 -9.179688 6.90625 -9.390625 5.96875 -9.390625 C 5.332031 -9.390625 4.703125 -9.289062 4.078125 -9.09375 C 3.460938 -8.894531 2.941406 -8.625 2.515625 -8.28125 L 1.265625 -10.703125 C 1.921875 -11.171875 2.707031 -11.53125 3.625 -11.78125 C 4.550781 -12.03125 5.488281 -12.15625 6.4375 -12.15625 C 8.257812 -12.15625 9.675781 -11.722656 10.6875 -10.859375 C 11.695312 -10.003906 12.203125 -8.660156 12.203125 -6.828125 L 12.203125 0 Z M 5.296875 0.171875 C 4.359375 0.171875 3.554688 0.015625 2.890625 -0.296875 C 2.222656 -0.617188 1.710938 -1.050781 1.359375 -1.59375 C 1.003906 -2.144531 0.828125 -2.765625 0.828125 -3.453125 C 0.828125 -4.160156 1 -4.78125 1.34375 -5.3125 C 1.695312 -5.851562 2.25 -6.273438 3 -6.578125 C 3.757812 -6.878906 4.75 -7.03125 5.96875 -7.03125 L 9.15625 -7.03125 L 9.15625 -5.015625 L 6.34375 -5.015625 C 5.53125 -5.015625 4.96875 -4.878906 4.65625 -4.609375 C 4.351562 -4.335938 4.203125 -4.003906 4.203125 -3.609375 C 4.203125 -3.160156 4.375 -2.804688 4.71875 -2.546875 C 5.070312 -2.285156 5.554688 -2.15625 6.171875 -2.15625 C 6.742188 -2.15625 7.257812 -2.289062 7.71875 -2.5625 C 8.1875 -2.84375 8.523438 -3.25 8.734375 -3.78125 L 9.265625 -2.1875 C 9.015625 -1.414062 8.550781 -0.828125 7.875 -0.421875 C 7.207031 -0.0234375 6.347656 0.171875 5.296875 0.171875 Z M 5.296875 0.171875 "/></g></g></g><g fill="#ed0256" fill-opacity="1"><g transform="translate(734.824806, 412.956199)"><g><path d="M 1.84375 0 L 1.84375 -15.59375 L 8.59375 -15.59375 C 9.988281 -15.59375 11.191406 -15.363281 12.203125 -14.90625 C 13.210938 -14.457031 13.988281 -13.804688 14.53125 -12.953125 C 15.082031 -12.109375 15.359375 -11.101562 15.359375 -9.9375 C 15.359375 -8.769531 15.082031 -7.765625 14.53125 -6.921875 C 13.988281 -6.078125 13.210938 -5.425781 12.203125 -4.96875 C 11.191406 -4.519531 9.988281 -4.296875 8.59375 -4.296875 L 3.859375 -4.296875 L 5.453125 -5.921875 L 5.453125 0 Z M 5.453125 -5.515625 L 3.859375 -7.234375 L 8.390625 -7.234375 C 9.503906 -7.234375 10.335938 -7.46875 10.890625 -7.9375 C 11.441406 -8.414062 11.71875 -9.082031 11.71875 -9.9375 C 11.71875 -10.789062 11.441406 -11.453125 10.890625 -11.921875 C 10.335938 -12.398438 9.503906 -12.640625 8.390625 -12.640625 L 3.859375 -12.640625 L 5.453125 -14.359375 Z M 5.453125 -5.515625 "/></g></g></g><g fill="#ed0256" fill-opacity="1"><g transform="translate(751.119437, 412.956199)"><g><path d="M 1.609375 0 L 1.609375 -16.515625 L 5.078125 -16.515625 L 5.078125 0 Z M 1.609375 0 "/></g></g></g><g fill="#ed0256" fill-opacity="1"><g transform="translate(757.819822, 412.956199)"><g><path d="M 8.953125 0 L 8.953125 -2.34375 L 8.734375 -2.84375 L 8.734375 -7.03125 C 8.734375 -7.78125 8.503906 -8.359375 8.046875 -8.765625 C 7.597656 -9.179688 6.90625 -9.390625 5.96875 -9.390625 C 5.332031 -9.390625 4.703125 -9.289062 4.078125 -9.09375 C 3.460938 -8.894531 2.941406 -8.625 2.515625 -8.28125 L 1.265625 -10.703125 C 1.921875 -11.171875 2.707031 -11.53125 3.625 -11.78125 C 4.550781 -12.03125 5.488281 -12.15625 6.4375 -12.15625 C 8.257812 -12.15625 9.675781 -11.722656 10.6875 -10.859375 C 11.695312 -10.003906 12.203125 -8.660156 12.203125 -6.828125 L 12.203125 0 Z M 5.296875 0.171875 C 4.359375 0.171875 3.554688 0.015625 2.890625 -0.296875 C 2.222656 -0.617188 1.710938 -1.050781 1.359375 -1.59375 C 1.003906 -2.144531 0.828125 -2.765625 0.828125 -3.453125 C 0.828125 -4.160156 1 -4.78125 1.34375 -5.3125 C 1.695312 -5.851562 2.25 -6.273438 3 -6.578125 C 3.757812 -6.878906 4.75 -7.03125 5.96875 -7.03125 L 9.15625 -7.03125 L 9.15625 -5.015625 L 6.34375 -5.015625 C 5.53125 -5.015625 4.96875 -4.878906 4.65625 -4.609375 C 4.351562 -4.335938 4.203125 -4.003906 4.203125 -3.609375 C 4.203125 -3.160156 4.375 -2.804688 4.71875 -2.546875 C 5.070312 -2.285156 5.554688 -2.15625 6.171875 -2.15625 C 6.742188 -2.15625 7.257812 -2.289062 7.71875 -2.5625 C 8.1875 -2.84375 8.523438 -3.25 8.734375 -3.78125 L 9.265625 -2.1875 C 9.015625 -1.414062 8.550781 -0.828125 7.875 -0.421875 C 7.207031 -0.0234375 6.347656 0.171875 5.296875 0.171875 Z M 5.296875 0.171875 "/></g></g></g><g fill="#ed0256" fill-opacity="1"><g transform="translate(771.554505, 412.956199)"><g><path d="M 3.125 4.5 C 2.5 4.5 1.878906 4.398438 1.265625 4.203125 C 0.660156 4.015625 0.164062 3.75 -0.21875 3.40625 L 1.046875 0.9375 C 1.316406 1.175781 1.625 1.359375 1.96875 1.484375 C 2.320312 1.617188 2.664062 1.6875 3 1.6875 C 3.488281 1.6875 3.878906 1.570312 4.171875 1.34375 C 4.460938 1.113281 4.726562 0.734375 4.96875 0.203125 L 5.59375 -1.265625 L 5.859375 -1.640625 L 10.15625 -11.984375 L 13.5 -11.984375 L 8.078125 0.734375 C 7.691406 1.703125 7.25 2.457031 6.75 3 C 6.257812 3.550781 5.710938 3.9375 5.109375 4.15625 C 4.503906 4.382812 3.84375 4.5 3.125 4.5 Z M 5.171875 0.46875 L -0.171875 -11.984375 L 3.40625 -11.984375 L 7.546875 -1.953125 Z M 5.171875 0.46875 "/></g></g></g></svg>